<?xml version="1.0" standalone="no"?>
<!DOCTYPE svg PUBLIC "-//W3C//DTD SVG 20010904//EN"
 "http://www.w3.org/TR/2001/REC-SVG-20010904/DTD/svg10.dtd">
<svg version="1.0" xmlns="http://www.w3.org/2000/svg"
 width="2000.000000pt" height="2000.000000pt" viewBox="0 0 2000.000000 2000.000000"
 preserveAspectRatio="xMidYMid meet">

<g transform="translate(0.000000,2000.000000) scale(0.100000,-0.100000)"
fill="#000000" stroke="none">
<path d="M8304 12528 c-3 -4 0 -8 7 -8 10 0 10 -3 2 -11 -13 -13 -36 -3 -28
12 4 5 2 9 -4 9 -23 0 -43 -14 -52 -37 -6 -16 -15 -23 -24 -19 -8 3 -15 1 -15
-4 0 -6 -4 -10 -10 -10 -11 0 -103 -62 -108 -72 -2 -5 -11 -8 -20 -8 -21 0
-68 -43 -77 -69 -3 -12 -9 -20 -13 -19 -16 5 -51 -24 -54 -44 -2 -16 -13 -26
-34 -32 -28 -8 -31 -14 -31 -46 0 -41 -6 -43 65 15 17 15 32 33 32 41 0 8 3
13 8 12 11 -3 91 50 127 85 38 38 150 117 165 117 5 0 10 4 10 10 0 5 11 12
25 16 14 3 25 10 25 15 0 5 14 9 31 9 23 0 30 4 26 14 -4 10 -1 13 9 9 8 -3
14 1 14 9 0 15 -67 21 -76 6z"/>
<path d="M7747 12107 c-21 -20 -50 -58 -65 -84 -16 -27 -33 -48 -38 -48 -15
-1 -54 -29 -54 -40 0 -6 -10 -21 -23 -35 -27 -30 -58 -91 -51 -102 18 -29 78
18 111 87 8 17 27 39 43 50 15 10 35 33 45 51 9 18 35 51 57 74 23 23 36 45
31 49 -6 3 -12 13 -15 21 -3 10 -14 4 -41 -23z m-82 -166 c-3 -6 -11 -8 -17
-5 -6 4 -5 9 3 15 16 10 23 4 14 -10z"/>
<path d="M11425 11230 c-4 -6 -18 -15 -31 -20 -27 -11 -32 -41 -9 -64 20 -20
19 -37 -2 -29 -15 5 -14 3 2 -10 26 -22 89 -22 106 -1 12 15 11 16 -8 10 -13
-4 -30 -3 -39 2 -13 7 -14 11 -2 23 33 36 36 53 13 78 -16 16 -25 19 -30 11z"/>
<path d="M11320 11186 c0 -16 24 -65 30 -61 10 6 -11 65 -22 65 -4 0 -8 -2 -8
-4z"/>
<path d="M11575 7300 c-3 -6 1 -7 9 -4 18 7 21 14 7 14 -6 0 -13 -4 -16 -10z"/>
</g>
</svg>
